<svg width="12" height="12" viewBox="0 0 12 12" fill="none" xmlns="http://www.w3.org/2000/svg">
<path d="M5.5 0.0253906C5.77246 0.00312804 5.9951 0.226635 5.99512 0.5C5.99512 0.773377 5.77305 0.99285 5.50098 1.01953C2.96885 1.26779 0.990252 3.40265 0.990234 6C0.990234 8.76413 3.231 11.0048 5.99512 11.0049C8.59249 11.0049 10.7283 9.02628 10.9766 6.49414C11.0034 6.22224 11.2219 6.00009 11.4951 6C11.7685 6 11.992 6.22264 11.9697 6.49512C11.718 9.57444 9.13935 11.9951 5.99512 11.9951C2.68424 11.995 0 9.31089 0 6C1.81697e-05 2.85584 2.42077 0.277209 5.5 0.0253906ZM3.47949 7.26953C3.68982 7.09492 4.00115 7.12367 4.17578 7.33398C4.65862 7.91558 5.30516 8.25483 5.99512 8.25488C6.68508 8.25488 7.33159 7.91554 7.81445 7.33398C7.98908 7.12364 8.30138 7.09491 8.51172 7.26953C8.72166 7.44417 8.75053 7.75561 8.57617 7.96582C7.93829 8.73417 7.02774 9.24512 5.99512 9.24512C4.96257 9.24506 4.05191 8.73413 3.41406 7.96582C3.23976 7.75548 3.26927 7.44406 3.47949 7.26953ZM4.07031 3.7998C4.5258 3.79993 4.89545 4.16949 4.89551 4.625C4.89551 5.08056 4.52584 5.45007 4.07031 5.4502C3.61468 5.4502 3.24512 5.08064 3.24512 4.625C3.24518 4.16942 3.61472 3.7998 4.07031 3.7998ZM7.91992 3.7998C8.37552 3.7998 8.74505 4.16942 8.74512 4.625C8.74512 5.08064 8.37556 5.4502 7.91992 5.4502C7.4643 5.45018 7.09473 5.08062 7.09473 4.625C7.09479 4.16943 7.46434 3.79982 7.91992 3.7998ZM10.1396 0C10.413 0 10.6348 0.221736 10.6348 0.495117V1.39941H11.54C11.8134 1.39941 12.035 1.62124 12.0352 1.89453C12.0352 2.16791 11.8134 2.38965 11.54 2.38965H10.6348V3.29492C10.6348 3.5683 10.413 3.79004 10.1396 3.79004C9.86642 3.78987 9.64453 3.5682 9.64453 3.29492V2.38965H8.74023C8.46686 2.38965 8.24512 2.16791 8.24512 1.89453C8.24522 1.62124 8.46692 1.39942 8.74023 1.39941H9.64453V0.495117C9.64453 0.221844 9.86642 0.000173949 10.1396 0Z" fill="#0C1221"/>
</svg>
