<svg width="16" height="16" viewBox="0 0 16 16" fill="none" xmlns="http://www.w3.org/2000/svg">
<g clip-path="url(#clip0_125_7262)">
<path d="M5.57456 9.77831C5.34173 9.49785 4.92563 9.45924 4.64517 9.69207C4.36472 9.92491 4.32611 10.341 4.55894 10.6215C5.40944 11.6459 6.62326 12.3266 8.00008 12.3266C9.37691 12.3266 10.5907 11.6459 11.4412 10.6215C11.6741 10.341 11.6355 9.92491 11.355 9.69207C11.0745 9.45924 10.6584 9.49785 10.4256 9.77831C9.78177 10.5538 8.92011 11.0066 8.00008 11.0066C7.08006 11.0066 6.2184 10.5538 5.57456 9.77831Z" fill="#121A2F"/>
<path d="M5.43315 7.26682C6.04066 7.26682 6.53315 6.77433 6.53315 6.16682C6.53315 5.55931 6.04066 5.06682 5.43315 5.06682C4.82564 5.06682 4.33315 5.55931 4.33315 6.16682C4.33315 6.77433 4.82564 7.26682 5.43315 7.26682Z" fill="#121A2F"/>
<path d="M10.5663 7.26682C11.1738 7.26682 11.6663 6.77433 11.6663 6.16682C11.6663 5.55931 11.1738 5.06682 10.5663 5.06682C9.95879 5.06682 9.4663 5.55931 9.4663 6.16682C9.4663 6.77433 9.95879 7.26682 10.5663 7.26682Z" fill="#121A2F"/>
<path fill-rule="evenodd" clip-rule="evenodd" d="M8.00007 0.00671387C3.58547 0.00671387 0.00673294 3.58545 0.00673294 8.00005C0.00673294 12.4146 3.58547 15.9934 8.00007 15.9934C12.4147 15.9934 15.9934 12.4146 15.9934 8.00005C15.9934 3.58545 12.4147 0.00671387 8.00007 0.00671387ZM1.32673 8.00005C1.32673 4.31447 4.31449 1.32671 8.00007 1.32671C11.6856 1.32671 14.6734 4.31447 14.6734 8.00005C14.6734 11.6856 11.6856 14.6734 8.00007 14.6734C4.31449 14.6734 1.32673 11.6856 1.32673 8.00005Z" fill="#121A2F"/>
</g>
<defs>
<clipPath id="clip0_125_7262">
<rect width="16" height="16" fill="white"/>
</clipPath>
</defs>
</svg>
