<svg width="15" height="15" viewBox="0 0 15 15" fill="none" xmlns="http://www.w3.org/2000/svg">
<path fill-rule="evenodd" clip-rule="evenodd" d="M14.4215 2.45812C14.9083 0.997809 13.5232 -0.387324 12.063 0.0992295L1.27362 3.69092C1.2373 3.70301 1.20256 3.71805 1.16965 3.73572C-0.308125 4.31731 -0.419529 6.40753 1.02951 7.13259L4.11202 8.67742C4.86621 9.05777 5.471 9.66396 5.84312 10.4082L7.38855 13.4919C8.13032 14.9744 10.3008 14.8222 10.8231 13.2462L14.4215 2.45812ZM12.4802 1.35157C12.9086 1.20877 13.312 1.61216 13.1693 2.04057L9.57046 12.8299L9.56997 12.8314C9.41939 13.2864 8.78575 13.3347 8.56864 12.9005L7.02322 9.81677C6.8722 9.51482 6.69287 9.23018 6.48846 8.96599L10.6598 4.79461C10.8941 4.5604 10.9154 4.19395 10.724 3.93559C10.7048 3.90963 10.6834 3.88476 10.6598 3.86123C10.4021 3.60348 9.98421 3.60348 9.72646 3.86123L5.55453 8.03317C5.29103 7.8296 5.00694 7.6503 4.70544 7.49832L1.61983 5.95194C1.1856 5.73482 1.23448 5.10145 1.68946 4.95086C1.72023 4.94068 1.74987 4.92838 1.77822 4.91416L12.4802 1.35157Z" fill="#F5F7FC"/>
</svg>
